<svg xmlns="http://www.w3.org/2000/svg" width="1200" height="300" viewBox="0 0 1200 300">
  <defs>
    <linearGradient id="bgGrad" x1="0" y1="0" x2="1" y2="0">
      <stop offset="0%" stop-color="#12161e"/>
      <stop offset="100%" stop-color="#161d2a"/>
    </linearGradient>
  </defs>

  <!-- background -->
  <rect width="1200" height="300" fill="url(#bgGrad)"/>

  <!-- left accent bar -->
  <rect x="0" y="0" width="5" height="300" fill="#63b3ed"/>

  <!-- bottom rule -->
  <rect x="0" y="296" width="1200" height="4" fill="#3882b4"/>

  <!-- slot circles -->
  <!-- slot 1 — green -->
  <circle cx="80" cy="150" r="30" fill="#3d7a5a"/>
  <circle cx="80" cy="150" r="22" fill="#48a178"/>
  <rect x="71" y="136" width="18" height="5" rx="2" fill="#e6edf5"/>
  <rect x="71" y="147" width="18" height="5" rx="2" fill="#e6edf5"/>
  <rect x="71" y="158" width="18" height="5" rx="2" fill="#e6edf5"/>

  <!-- slot 2 — blue -->
  <circle cx="156" cy="150" r="30" fill="#3a5580"/>
  <circle cx="156" cy="150" r="22" fill="#638cc8"/>
  <rect x="147" y="136" width="18" height="5" rx="2" fill="#e6edf5"/>
  <rect x="147" y="147" width="18" height="5" rx="2" fill="#e6edf5"/>
  <rect x="147" y="158" width="18" height="5" rx="2" fill="#647890"/>

  <!-- slot 3 — amber -->
  <circle cx="232" cy="150" r="30" fill="#6e3e28"/>
  <circle cx="232" cy="150" r="22" fill="#b46e50"/>
  <rect x="223" y="136" width="18" height="5" rx="2" fill="#e6edf5"/>
  <rect x="223" y="147" width="18" height="5" rx="2" fill="#647890"/>
  <rect x="223" y="158" width="18" height="5" rx="2" fill="#647890"/>

  <!-- main title -->
  <text x="290" y="130" font-family="-apple-system, BlinkMacSystemFont, 'Segoe UI', sans-serif"
        font-size="72" font-weight="700" fill="#e6edf5" letter-spacing="-1">ASM-Lite</text>

  <!-- subtitle -->
  <text x="292" y="172" font-family="-apple-system, BlinkMacSystemFont, 'Segoe UI', sans-serif"
        font-size="24" font-weight="400" fill="#788aa0">Avatar Settings Manager Lite</text>

  <!-- tagline -->
  <text x="294" y="205" font-family="-apple-system, BlinkMacSystemFont, 'Segoe UI', sans-serif"
        font-size="16" font-weight="400" fill="#445566">Save · Load · Reset · Three Preset Slots · VRCFury</text>

  <!-- right pills -->
  <!-- Save -->
  <rect x="950" y="72" width="200" height="44" rx="4" fill="#1a3828"/>
  <rect x="950" y="72" width="5" height="44" fill="#48a178"/>
  <text x="972" y="101" font-family="-apple-system, BlinkMacSystemFont, 'Segoe UI', sans-serif"
        font-size="22" font-weight="600" fill="#e6edf5">Save</text>

  <!-- Load -->
  <rect x="950" y="128" width="200" height="44" rx="4" fill="#1a2840"/>
  <rect x="950" y="128" width="5" height="44" fill="#638cc8"/>
  <text x="972" y="157" font-family="-apple-system, BlinkMacSystemFont, 'Segoe UI', sans-serif"
        font-size="22" font-weight="600" fill="#e6edf5">Load</text>

  <!-- Reset -->
  <rect x="950" y="184" width="200" height="44" rx="4" fill="#2e1a14"/>
  <rect x="950" y="184" width="5" height="44" fill="#b46e50"/>
  <text x="972" y="213" font-family="-apple-system, BlinkMacSystemFont, 'Segoe UI', sans-serif"
        font-size="22" font-weight="600" fill="#e6edf5">Reset</text>
</svg>
